<?xml version="1.0" standalone="no"?>
<!DOCTYPE svg PUBLIC "-//W3C//DTD SVG 20010904//EN"
 "http://www.w3.org/TR/2001/REC-SVG-20010904/DTD/svg10.dtd">
<svg version="1.0" xmlns="http://www.w3.org/2000/svg"
 width="700.000000pt" height="700.000000pt" viewBox="0 0 700.000000 700.000000"
 preserveAspectRatio="xMidYMid meet">
<metadata>
Created by potrace 1.11, written by Peter Selinger 2001-2013
</metadata>
<g transform="translate(0.000000,700.000000) scale(0.100000,-0.100000)"
fill="#000000" stroke="none">
<path d="M2715 6921 c-82 -24 -127 -44 -180 -81 -225 -155 -298 -437 -173
-673 33 -61 99 -136 160 -180 46 -34 157 -87 181 -87 9 0 17 -8 18 -17 0 -10
2 -25 4 -33 60 -297 59 -291 40 -400 -2 -14 -11 -68 -20 -120 -9 -52 -17 -95
-18 -96 -1 -1 -31 -14 -67 -30 -137 -60 -319 -176 -445 -283 -54 -46 -63 -51
-95 -45 -19 4 -42 8 -50 9 -137 25 -143 27 -250 109 -58 44 -108 84 -111 89
-4 6 -9 26 -13 46 -15 97 -107 216 -200 260 -194 91 -427 12 -512 -173 -32
-71 -37 -96 -36 -177 2 -149 79 -265 222 -336 50 -26 64 -28 171 -28 l115 0
93 -69 c94 -71 105 -84 162 -209 29 -65 27 -98 -12 -184 -51 -111 -91 -255
-134 -483 -4 -19 -9 -129 -11 -245 -2 -115 -3 -213 -4 -217 -1 -21 -67 -79
-181 -159 -104 -73 -144 -95 -206 -113 -43 -13 -119 -37 -170 -53 l-91 -30
-34 28 c-117 100 -308 143 -462 103 -99 -26 -166 -64 -242 -139 -116 -114
-167 -243 -160 -405 9 -198 118 -362 297 -448 122 -59 238 -72 363 -39 142 37
235 105 318 231 36 55 78 166 78 205 0 19 3 20 197 81 l132 41 168 -1 c205 -2
219 -7 289 -114 108 -164 252 -327 392 -446 70 -59 79 -90 64 -218 -12 -101
-17 -135 -27 -203 -9 -58 -220 -489 -240 -489 -26 0 -114 -51 -154 -89 -53
-51 -76 -88 -101 -161 -18 -54 -21 -78 -16 -140 27 -324 401 -470 640 -250 48
45 94 128 111 203 12 55 3 158 -19 211 -12 29 -9 39 48 156 34 69 81 168 106
220 35 74 61 113 120 175 111 118 151 155 189 171 38 16 116 18 176 5 52 -12
156 -22 274 -27 100 -4 159 -24 198 -67 12 -12 54 -76 95 -143 70 -113 77
-129 112 -266 21 -81 39 -153 40 -160 2 -7 6 -25 10 -40 6 -20 3 -32 -8 -43
-27 -27 -73 -98 -90 -139 -23 -54 -28 -80 -33 -168 -16 -252 190 -475 448
-484 144 -5 256 37 351 131 219 218 179 581 -82 740 -30 18 -67 37 -83 40 -29
8 -43 26 -51 66 -2 13 -21 89 -41 169 -42 166 -40 145 -31 275 15 234 23 259
92 302 173 108 277 181 360 252 130 112 135 114 284 97 59 -7 76 -15 185 -87
117 -78 119 -80 132 -130 25 -96 113 -200 203 -242 179 -81 403 -10 491 157
36 67 50 119 50 181 -1 78 -7 108 -36 170 -46 97 -124 164 -229 199 -58 20
-161 22 -211 6 -35 -12 -38 -11 -144 59 -100 67 -110 76 -148 144 -66 116 -68
138 -29 247 30 83 71 244 86 335 17 110 37 131 182 202 129 63 140 65 333 79
l80 6 25 -49 c40 -76 143 -174 230 -216 324 -160 671 3 796 373 28 82 26 262
-3 355 -74 234 -266 393 -497 410 -218 15 -439 -115 -542 -321 -32 -65 -43
-79 -64 -81 -56 -3 -175 -13 -218 -19 -47 -5 -76 1 -240 49 -103 30 -133 57
-168 151 -52 140 -181 394 -206 404 -4 2 -8 8 -8 14 0 5 -11 24 -25 42 -14 18
-25 39 -25 46 0 24 94 271 110 288 94 106 257 279 269 286 8 5 40 11 70 13
123 7 253 100 308 219 30 66 42 190 24 250 -47 151 -143 244 -287 277 -176 41
-349 -44 -427 -211 -25 -53 -30 -78 -31 -141 -1 -61 -5 -80 -21 -97 -11 -12
-63 -67 -115 -124 -52 -57 -108 -116 -123 -133 -29 -31 -264 -147 -297 -147
-10 0 -49 17 -87 39 -98 55 -275 132 -348 151 -16 5 -66 18 -110 29 -106 28
-250 50 -372 55 -54 3 -106 8 -115 11 -9 4 -54 65 -98 137 -81 130 -94 164
-117 303 -2 17 -11 56 -18 87 l-13 58 31 22 c157 110 242 318 207 504 -36 190
-154 328 -347 406 -69 27 -91 32 -188 34 -82 2 -125 -2 -170 -15z"/>
<path d="M980 6825 c-138 -36 -248 -146 -285 -286 -27 -103 -9 -223 46 -311
123 -193 373 -248 559 -123 69 47 103 86 143 165 30 61 32 71 32 170 -1 94 -3
111 -28 162 -87 178 -281 271 -467 223z"/>
<path d="M929 1409 c-173 -27 -270 -212 -194 -372 45 -96 133 -151 240 -149
148 1 257 113 258 262 0 76 -19 124 -68 179 -57 63 -148 94 -236 80z"/>
<path d="M5775 1099 c-84 -13 -177 -66 -238 -134 -51 -58 -87 -158 -88 -244 0
-83 4 -99 39 -175 50 -107 151 -187 265 -210 249 -52 471 127 470 379 -1 242
-208 420 -448 384z"/>
</g>
</svg>
